<svg width="204" height="204" viewBox="0 0 204 204" fill="none" xmlns="http://www.w3.org/2000/svg">
<g clip-path="url(#clip0_11_4)">
<path d="M102 204C158.333 204 204 158.333 204 102C204 45.667 158.333 0 102 0C45.667 0 0 45.667 0 102C0 158.333 45.667 204 102 204Z" fill="#7D0D0D"/>
<path d="M145.775 89.5711C127.045 89.5711 108.315 89.5711 89.587 89.5711C94.359 84.799 99.1316 80.0264 103.904 75.2526C114.912 64.2441 97.7624 47.2213 86.7263 58.2592C75.0928 69.8926 63.461 81.5261 51.8276 93.1596C47.1584 97.8288 47.2842 105.61 51.9193 110.245C63.5528 121.877 75.1845 133.51 86.818 145.142C97.8266 156.15 114.849 139.001 103.811 127.964C99.0683 123.221 94.325 118.478 89.5818 113.736C108.255 113.736 126.929 113.736 145.6 113.736C161.201 113.736 161.34 89.5711 145.775 89.5711Z" fill="white"/>
</g>
<defs>
<clipPath id="clip0_11_4">
<rect width="204" height="204" fill="white"/>
</clipPath>
</defs>
</svg>
