<svg width="512" height="512" viewBox="0 0 512 512" fill="none" xmlns="http://www.w3.org/2000/svg">
<path d="M98.6985 351.925L146.071 319.455C146.071 319.455 180.103 335.959 180.103 382.484C180.103 429.008 133.058 429.008 133.058 429.008C118.24 410.539 105.239 390.682 94.2366 369.714C92.6885 366.713 92.2876 363.251 93.1089 359.977C93.9303 356.702 95.9177 353.839 98.6985 351.925V351.925Z" fill="#F2A2CE"/>
<path d="M146.071 319.455C144.73 336.755 149.727 353.951 160.129 367.839C162.849 371.586 164.486 376.009 164.859 380.624C165.966 394.147 163.79 420.155 133.054 429.005C145.28 444.569 158.624 459.222 172.979 472.847L209.402 442.157L178.114 297.493L146.071 319.455Z" fill="#E073A0"/>
<path d="M345.299 286.246C345.299 286.246 376.21 304.888 386.342 363.77C388.204 374.765 392.847 385.101 399.831 393.794C406.194 401.745 411.08 410.773 414.258 420.448C402.583 446.533 355.611 443.871 305.533 438.67L345.299 286.246Z" fill="#7798E0"/>
<path d="M419.238 447.02C418.759 437.981 417.078 429.047 414.24 420.453C364.115 433.102 333.675 409.056 318.223 390.01L305.527 438.674L317.708 491.389H376.861C382.602 491.412 388.288 490.265 393.572 488.018C398.856 485.771 403.626 482.47 407.592 478.318C411.557 474.166 414.635 469.249 416.638 463.868C418.64 458.487 419.525 452.754 419.238 447.02V447.02Z" fill="#7798E0"/>
<path d="M195.489 467.584V491.389H317.716L317.312 467.584C276.772 464.269 236.029 464.269 195.489 467.584Z" fill="#3E3E59"/>
<path d="M197.624 157.469C197.624 157.469 208.45 174.225 180.798 197.018C180.798 197.018 152.582 219.223 152.582 252.314C152.582 289.3 194.119 290.763 194.119 290.763L230.215 224.116V172.848L197.624 157.469Z" fill="#3E3E59"/>
<path d="M189.639 133.873C189.639 133.873 162.786 131.826 160.601 99.6668C160.601 99.6668 154.356 43.4658 203.067 40.3351C203.067 40.3351 213.37 20.6652 243.968 20.6652C243.968 20.6652 310.161 16.4638 321.402 77.2638C324.404 93.2066 325.817 109.408 325.618 125.63C325.436 139.713 329.693 153.497 337.784 165.025C356.277 191.544 381.756 242.795 333.585 276.694H254.255L248.026 177.717L189.639 133.873Z" fill="#3E3E59"/>
<path d="M200.885 248.302C200.885 248.302 150.662 302.047 180.599 355.857C186.401 366.051 189.865 377.409 190.738 389.106C191.908 406.666 191.862 424.286 190.601 441.839C190.409 444.512 189.504 447.085 187.982 449.291C186.421 451.304 185.547 453.765 185.49 456.312C185.432 458.858 186.193 461.357 187.662 463.438C188.526 464.719 189.693 465.767 191.058 466.49C192.424 467.213 193.947 467.589 195.492 467.584H305.161L343.886 425.242C343.886 425.242 373.752 419.348 366.973 376.587C366.973 376.587 368.435 291.354 326.261 248.293L291.024 227.182L200.885 248.302Z" fill="#585875"/>
<path d="M332.238 417.732L209.425 370.641L208.22 383.377C207.827 387.496 208.336 391.652 209.71 395.556C211.085 399.46 213.292 403.017 216.178 405.983C241.784 431.832 271.953 452.718 305.161 467.586H317.315C319.055 467.615 320.782 467.294 322.395 466.641C324.007 465.988 325.472 465.017 326.701 463.786C329.83 460.524 332.143 454.864 327.341 445.684L334.469 436.879L332.238 417.732Z" fill="#3E3E59"/>
<path d="M309.659 235.177L246.061 348.696L320.638 367.617C321.278 367.779 321.954 367.717 322.553 367.442C323.153 367.168 323.641 366.696 323.936 366.107C324.232 365.517 324.317 364.844 324.178 364.199C324.039 363.554 323.684 362.976 323.171 362.561C310.831 352.696 297.601 344 283.651 336.586C295.754 301.073 320.785 257.391 326.255 248.303C321.315 243.227 315.737 238.815 309.659 235.177V235.177Z" fill="#3E3E59"/>
<path d="M266.296 213.79L283.645 242.87L242.056 337.669H229.331C219.693 316.904 211.937 295.317 206.155 273.167L219.534 220.681L266.296 213.79Z" fill="#C1CBE0"/>
<path d="M225.137 266.007C224.116 279.495 222.913 297.415 221.691 320.068C225.056 328.433 227.741 334.295 228.816 336.584L243.316 334.794L251.908 313.096L249.421 274.599C243.387 264.885 234.937 263.194 225.137 266.007V266.007Z" fill="#FC6383"/>
<path d="M225.137 266.007C230.472 265.91 241.001 266.851 249.421 274.601L246.787 233.841L227.948 234.04C227.948 234.04 226.786 244.28 225.137 266.007V266.007Z" fill="#DB3E64"/>
<path d="M269.565 274.962L291.015 226.071L266.296 213.79L236.535 240.92L269.565 274.962Z" fill="white"/>
<path d="M200.885 248.302C202.267 256.788 204.097 265.15 206.155 273.16L236.536 240.92L229.289 219.235L219.53 220.67L200.885 248.302Z" fill="white"/>
<path d="M237.628 311.695C251.969 281.82 268.748 253.178 287.794 226.06C289.252 223.985 291.383 222.478 293.826 221.794C296.269 221.111 298.872 221.293 301.196 222.31C304.796 223.93 308.143 226.06 311.135 228.635C313.132 230.36 314.443 232.745 314.83 235.355C315.217 237.966 314.654 240.628 313.243 242.858C305.661 254.875 289.623 280.755 274.391 308.32C274.391 308.314 251.156 326.975 237.628 311.695V311.695Z" fill="#97C9F7"/>
<path d="M219.529 201.236V220.675C219.529 220.675 224.388 229.987 236.535 240.92C236.535 240.92 250.505 233.833 266.296 213.79V192.14L219.529 201.236Z" fill="#FCC7B6"/>
<path d="M277 116.204H284.401C286.345 116.204 288.27 116.587 290.067 117.332C291.863 118.076 293.495 119.167 294.869 120.542C296.244 121.917 297.334 123.549 298.077 125.346C298.821 127.142 299.203 129.068 299.202 131.012V136.734C299.202 138.678 298.819 140.602 298.076 142.398C297.332 144.194 296.241 145.825 294.867 147.2C293.493 148.574 291.861 149.664 290.065 150.408C288.269 151.151 286.345 151.534 284.401 151.534H272.565L277 116.204Z" fill="#EF9292"/>
<path d="M219.529 201.236C223.706 202.116 227.963 202.561 232.231 202.564C244.38 202.621 256.259 198.985 266.296 192.14V167.834L219.529 182.212V201.236Z" fill="#EF9292"/>
<path d="M194.119 116.204H182.278C180.334 116.205 178.409 116.588 176.613 117.332C174.817 118.076 173.185 119.167 171.811 120.542C170.436 121.917 169.346 123.55 168.603 125.346C167.86 127.142 167.477 129.068 167.478 131.012V136.734C167.478 140.659 169.037 144.424 171.813 147.199C174.588 149.975 178.353 151.534 182.278 151.534H194.119V116.204Z" fill="#EF9292"/>
<path d="M208.797 63.5166C208.797 63.5166 207.059 115.009 277 119.13V146.427C277 158.301 272.283 169.688 263.887 178.084C255.492 186.48 244.105 191.197 232.231 191.197C220.358 191.197 208.971 186.48 200.575 178.084C192.179 169.688 187.463 158.301 187.463 146.427V121.374C187.463 121.374 190.042 83.5569 208.797 63.5166V63.5166Z" fill="#FCC7B6"/>
<path d="M216.183 383.989C216.183 383.989 277.147 436.997 342.508 464.946C346.14 466.547 350.224 466.802 354.027 465.665C357.83 464.528 361.104 462.074 363.261 458.741C363.342 458.61 363.424 458.478 363.503 458.344C364.68 456.336 365.426 454.105 365.694 451.794C365.962 449.482 365.745 447.14 365.059 444.916C364.372 442.692 363.231 440.636 361.706 438.877C360.182 437.119 358.308 435.697 356.204 434.702C352.504 432.931 348.928 427.684 343.883 425.236C318.318 412.829 276.763 395.702 242.912 376.641L216.183 383.989Z" fill="#7798E0"/>
<path d="M270.219 348.696L351.586 377.368L343.883 425.242L248.779 394.135L270.219 348.696Z" fill="#585875"/>
<path d="M140.255 442.651L150.749 435.165C154.602 432.418 159.322 431.163 164.03 431.634C168.739 432.105 173.117 434.27 176.349 437.725L191.831 454.261C193.678 456.224 195.097 458.548 196 461.086C196.903 463.625 197.27 466.323 197.078 469.011C196.885 471.698 196.137 474.317 194.882 476.701C193.626 479.085 191.889 481.182 189.782 482.861C187.997 484.273 186.14 485.592 184.219 486.813C181.643 488.423 178.666 489.277 175.628 489.277C172.59 489.277 169.613 488.423 167.037 486.813C155.829 479.835 145.921 470.961 137.755 460.588C136.702 459.261 135.93 457.735 135.484 456.102C135.039 454.468 134.93 452.761 135.164 451.084C135.397 449.407 135.969 447.795 136.844 446.345C137.719 444.896 138.88 443.639 140.255 442.651V442.651Z" fill="#FCC7B6"/>
<path d="M220.04 143.163C217.772 142.054 215.294 141.444 212.771 141.372C211.379 141.505 209.991 141.08 208.913 140.19C207.835 139.301 207.154 138.019 207.021 136.627C206.888 135.236 207.313 133.848 208.203 132.77C209.093 131.692 210.375 131.011 211.766 130.878C216.497 130.577 221.211 131.677 225.319 134.04C225.918 134.387 226.443 134.848 226.864 135.397C227.285 135.946 227.594 136.573 227.773 137.242C227.952 137.911 227.997 138.608 227.906 139.294C227.815 139.98 227.59 140.642 227.244 141.241C226.497 142.4 225.345 143.239 224.013 143.595C222.681 143.95 221.264 143.796 220.04 143.163Z" fill="#EF9292"/>
<path d="M239.435 141.24C239.071 140.645 238.831 139.983 238.731 139.293C238.63 138.603 238.671 137.9 238.851 137.226C239.031 136.552 239.347 135.922 239.778 135.374C240.209 134.826 240.747 134.372 241.36 134.039C245.468 131.675 250.182 130.575 254.913 130.876C256.304 131.01 257.586 131.691 258.475 132.77C259.364 133.848 259.789 135.236 259.655 136.627C259.521 138.019 258.84 139.3 257.761 140.189C256.683 141.079 255.295 141.503 253.904 141.369C251.364 141.294 248.853 141.914 246.639 143.161C245.393 143.668 244.015 143.755 242.715 143.408C241.415 143.061 240.264 142.3 239.435 141.24Z" fill="#EF9292"/>
<path d="M234.135 174.146C230.266 174.219 226.423 173.49 222.849 172.006C221.58 171.438 220.587 170.391 220.086 169.094C219.585 167.796 219.617 166.354 220.176 165.08C220.734 163.806 221.773 162.805 223.066 162.294C224.36 161.783 225.803 161.804 227.081 162.352C229.321 163.25 231.722 163.677 234.135 163.605C236.813 163.657 239.475 163.176 241.965 162.19C243.254 161.648 244.705 161.641 245.999 162.17C247.293 162.698 248.324 163.719 248.866 165.008C249.407 166.297 249.414 167.748 248.886 169.042C248.357 170.336 247.336 171.367 246.048 171.909C242.264 173.437 238.215 174.197 234.135 174.146Z" fill="#EF9292"/>
<path d="M277 127.343V116.2C211.051 111.851 208.797 63.5121 208.797 63.5121C208.797 63.5121 200.258 126.795 277 127.343Z" fill="#EF9292"/>
<path d="M254.255 347.383C260.128 334.848 267.169 321.393 274.393 308.314C268.84 311.415 262.699 313.319 256.366 313.901C250.033 314.484 243.647 313.733 237.622 311.697C229.269 329.014 224.881 340.158 224.881 340.158L254.255 347.383Z" fill="#7798E0"/>
<path d="M236.142 334.709L270.219 348.696C270.219 348.696 272.327 379.976 248.779 394.135L220.292 385.884C217.025 384.944 214.173 382.926 212.199 380.158C210.226 377.39 209.248 374.035 209.425 370.64C209.914 360.542 212.517 350.66 217.067 341.632C218.807 338.304 221.73 335.748 225.26 334.467C228.79 333.186 232.672 333.273 236.142 334.709V334.709Z" fill="#FCC7B6"/>
</svg>
