<svg width="512" height="512" viewBox="0 0 512 512" fill="none" xmlns="http://www.w3.org/2000/svg">
<g clip-path="url(#clip0_2_2)">
<path d="M256 0C359.253 0 442.956 83.703 442.956 186.956V364.406C442.956 414.556 411.021 459.138 363.539 475.275L256 511.824L148.461 475.275C100.979 459.137 69.044 414.555 69.044 364.406V186.956C69.044 83.703 152.747 0 256 0V0Z" fill="#CD4F63"/>
<path d="M210.441 475.277L256 511.824L148.468 475.277C100.986 459.143 69.043 414.552 69.043 364.411V186.956C69.043 83.703 152.746 0 256 0C212.26 0 176.797 83.703 176.797 186.956V364.411C176.797 414.551 190.331 459.142 210.441 475.277V475.277Z" fill="#CB5769"/>
<path d="M367.465 494.991L326.386 512H185.639L150.113 484.634C152.833 455.923 154.327 461.408 156.562 446.687C157.85 438.229 142.381 426.835 149.726 422.436C157.236 417.934 164.973 413.937 172.689 410.393C179.344 407.333 185.968 404.603 192.417 402.193C218.161 392.53 241.041 412.397 250.89 410.625C254.279 410.007 257.73 410.007 261.12 410.625C270.958 412.397 293.849 392.53 319.583 402.193C333.511 407.406 348.284 414.05 362.274 422.436C369.619 426.835 356.919 447.653 358.217 456.111C360.442 470.832 364.735 466.28 367.465 494.991V494.991Z" fill="#5766CB"/>
<path d="M172.689 410.393C167.002 415.152 163.15 423.167 162.15 432.212C160.306 448.963 157.246 478.992 155.083 512L135.733 497.601C138.453 468.89 145.502 472.339 147.738 457.617C149.026 449.159 142.381 426.834 149.726 422.435C157.237 417.934 164.973 413.937 172.689 410.393V410.393Z" fill="#3D4FC3"/>
<path d="M214.354 463.094C214.354 463.094 221.465 475.974 232.955 489.779C239.416 497.542 247.261 495.611 256.005 501.832C264.748 495.611 272.592 497.544 279.053 489.782C290.544 475.976 297.656 463.094 297.656 463.094V410.389H214.354V463.094Z" fill="#ECF4FF"/>
<path d="M279.05 489.779C272.592 497.543 264.746 505.599 256.002 511.824C247.259 505.599 239.413 497.543 232.955 489.779L256.002 457.618L279.05 489.779Z" fill="#CD4F63"/>
<path d="M214.354 427.573L256.007 467.617L297.661 427.573L260.627 406.431" fill="#CD4F63"/>
<path d="M185.917 510.846C185.835 511.217 185.742 511.608 185.639 512H127.537C130.257 483.289 133.883 457.503 136.118 442.782C137.406 434.324 142.382 426.835 149.727 422.436C154.476 424.877 158.638 427.814 162.295 431.1C180.148 447.14 185.783 471.462 187.524 486.987C188.41 494.971 187.823 503.048 185.917 510.846V510.846Z" fill="#ECF4FF"/>
<path d="M384.478 512H326.386C326.291 511.605 326.198 511.22 326.107 510.845C324.21 503.044 323.614 494.972 324.506 486.993C326.599 468.279 334.342 436.812 362.277 422.436C369.622 426.835 374.598 434.324 375.896 442.782C378.122 457.503 381.748 483.289 384.478 512V512Z" fill="#ECF4FF"/>
<path d="M162.295 431.1C162.233 431.471 162.192 431.842 162.151 432.213C160.307 448.964 157.247 478.993 155.084 512.001H127.537C130.257 483.29 133.883 457.504 136.118 442.783C137.406 434.325 142.382 426.836 149.727 422.437C154.476 424.878 158.638 427.814 162.295 431.1V431.1Z" fill="#DDEAFB"/>
<path d="M319.589 402.194L297.661 463.094L256.008 423.049L214.355 463.094L192.427 402.194C218.167 392.53 241.052 387.762 250.891 385.99C254.283 385.372 257.734 385.372 261.127 385.99C270.964 387.761 293.849 392.529 319.589 402.194Z" fill="#DDEAFB"/>
<path d="M287.63 338.615V391.427C287.63 408.888 273.471 423.047 256.01 423.047C238.539 423.047 224.38 408.888 224.38 391.427V338.615H287.63Z" fill="#FFDDCE"/>
<path d="M266.337 421.323C263.102 422.436 259.629 423.045 256.013 423.045C238.542 423.045 224.383 408.886 224.383 391.425V338.613H245.032V391.425C245.031 405.279 253.938 417.05 266.337 421.323Z" fill="#FFCBBE"/>
<path d="M224.38 338.615H287.63V387.268H224.38V338.615Z" fill="#FFCBBE"/>
<path d="M388.111 201.676V274.242C388.111 327.415 345.005 370.531 291.822 370.531H220.179C167.006 370.531 123.89 327.425 123.89 274.242V202.504C140.285 202.028 162.847 199.231 187.15 194.292C236.955 184.167 294.125 165.031 320.721 138.435C320.721 138.435 347.032 192.198 388.111 201.676Z" fill="#FFDDCE"/>
<path d="M283.439 370.53H220.179C167.006 370.53 123.89 327.424 123.89 274.241V202.503C140.285 202.027 162.847 199.23 187.15 194.291V274.241C187.15 327.415 230.256 370.53 283.439 370.53Z" fill="#FFCBBE"/>
<path d="M333.827 294.234C345.771 294.234 355.453 288.347 355.453 281.084C355.453 273.821 345.771 267.934 333.827 267.934C321.883 267.934 312.201 273.821 312.201 281.084C312.201 288.347 321.883 294.234 333.827 294.234Z" fill="#EAAFA5"/>
<path d="M178.188 294.234C190.132 294.234 199.814 288.347 199.814 281.084C199.814 273.821 190.132 267.934 178.188 267.934C166.244 267.934 156.562 273.821 156.562 281.084C156.562 288.347 166.244 294.234 178.188 294.234Z" fill="#EAAFA5"/>
<path d="M196.138 220.075C195.705 220.075 180.699 220.188 180.549 220.189C176.472 220.189 173.155 223.506 173.155 227.583C173.155 231.66 176.472 234.977 180.549 234.977H184.055C183.711 236.899 183.537 238.891 183.537 240.905C183.537 252.391 189.19 261.735 196.138 261.735C203.087 261.735 208.74 252.391 208.74 240.905C208.74 229.419 203.087 220.075 196.138 220.075V220.075Z" fill="#2B4D66"/>
<path d="M331.452 220.189C331.217 220.187 315.343 220.075 314.911 220.075C307.962 220.075 302.309 229.42 302.309 240.905C302.309 252.39 307.962 261.735 314.911 261.735C321.859 261.735 327.512 252.391 327.512 240.905C327.512 238.892 327.338 236.9 326.994 234.977H331.451C335.528 234.977 338.845 231.66 338.845 227.583C338.845 223.507 335.528 220.19 331.452 220.189V220.189Z" fill="#2B4D66"/>
<path d="M256 316.221C247.574 316.221 239.653 312.94 233.695 306.982C230.677 303.965 230.677 299.073 233.695 296.055C236.712 293.037 241.604 293.037 244.622 296.055C247.661 299.094 251.702 300.768 256 300.768C260.298 300.768 264.339 299.094 267.378 296.055C270.395 293.038 275.287 293.038 278.305 296.055C281.322 299.072 281.323 303.964 278.305 306.982C272.348 312.939 264.426 316.221 256 316.221Z" fill="#CD4F63"/>
</g>
<defs>
<clipPath id="clip0_2_2">
<rect width="512" height="512" fill="white"/>
</clipPath>
</defs>
</svg>
